# xmcd
#
# Track frame offsets:
#	150
#	26035
#	50745
#	73805
#	95887
#	111847
#	132440
#	148762
#	168605
#	194800
#	221777
#	245257
#	269940
#	293585
#
# Disc length: 4501 seconds
#
# Revision: 23
# Processed by: cddbd v1.5.2PL0 Copyright (c) Steve Scherf et al.
# Submitted via: EasyCDDAExtractor 15.3.0.1
#
DISCID=f611930e
DTITLE=Various Artist - VH1 Divas Live
DYEAR=1998
DGENRE=Pop
TTITLE0=Mariah Carey - My All
TTITLE1=Mariah Carey - Make It Happen
TTITLE2=Gloria Estefan - Turn The Beat Around
TTITLE3=Gloria Estefan - Heaven's What I Feel
TTITLE4=Gloria Estefan - Megamix (Dr. Beat, Conga, Rhythm Is Gonna Get You, 1-
TTITLE4=2-3, Get On Your Feet)
TTITLE5=Shania Twain - Man! I Feel Like A Woman!
TTITLE6=Shania Twain - You're Still The One
TTITLE7=Aretha Franklin And Mariah Carey - Chain Of Fools
TTITLE8=Celine Dion - River Deep, Mountain High
TTITLE9=Celine Dion - The Reason
TTITLE10=Celine Dion - My Heart Will Go On
TTITLE11=Celine Dion, Gloria Estefan, Shania Twain, Carole King - You've Got A
TTITLE11=Friend
TTITLE12=The Divas - A Natural Woman
TTITLE13=The Divas - Testimony
EXTD=divas
EXTT0=
EXTT1=
EXTT2=
EXTT3=
EXTT4=
EXTT5=
EXTT6=
EXTT7=
EXTT8=
EXTT9=
EXTT10=
EXTT11=
EXTT12=
EXTT13=
PLAYORDER=
